<svg width="24" height="24" viewBox="0 0 24 24" fill="none" xmlns="http://www.w3.org/2000/svg">
    <path
        fill-rule="evenodd"
        clip-rule="evenodd"
        d="M6 2C3.79086 2 2 3.79086 2 6V18C2 20.2091 3.79086 22 6 22H18C20.2091 22 22 20.2091 22 18V6C22 3.79086 20.2091 2 18 2H6ZM16.7929 12.707C17.1834 12.3165 17.1834 11.6833 16.7929 11.2928L14.318 8.81791C14.1227 8.62265 13.8062 8.62265 13.6109 8.81791C13.4156 9.01317 13.4156 9.32975 13.6109 9.52501L15.3787 11.2928C15.7692 11.6833 15.7692 12.3165 15.3787 12.707L13.6109 14.4748C13.4156 14.67 13.4156 14.9866 13.6109 15.1819C13.8062 15.3771 14.1227 15.3771 14.318 15.1819L16.7929 12.707ZM8.62133 12.707C8.2308 12.3165 8.2308 11.6833 8.62132 11.2928L10.3891 9.52501C10.5843 9.32975 10.5843 9.01317 10.3891 8.81791C10.1938 8.62265 9.87724 8.62265 9.68198 8.81791L7.20711 11.2928C6.81658 11.6833 6.81659 12.3165 7.20711 12.707L9.68198 15.1819C9.87725 15.3771 10.1938 15.3771 10.3891 15.1819C10.5843 14.9866 10.5843 14.67 10.3891 14.4747L8.62133 12.707Z"
        fill="#FFFFFF"
    />
</svg>
